<?xml version="1.0" encoding="iso-8859-1"?>
<!-- Generator: Adobe Illustrator 19.0.0, SVG Export Plug-In . SVG Version: 6.00 Build 0)  -->
<svg version="1.1" id="Capa_1" xmlns="http://www.w3.org/2000/svg" xmlns:xlink="http://www.w3.org/1999/xlink" x="0px" y="0px"
	 viewBox="0 0 512 512" style="enable-background:new 0 0 512 512;" xml:space="preserve">
<path style="fill:#E7ECED;" d="M473.768,8.828H232.439c-16.243,0-29.405,13.162-29.405,29.405v41.216v423.724h270.733
	c16.243,0,29.405-13.162,29.405-29.405V38.232C503.172,21.99,490.01,8.828,473.768,8.828z"/>
<path style="fill:#DC691D;" d="M263.406,220.69L263.406,220.69c-4.096,0-7.406-3.31-7.406-7.406v-54.387H44.138v54.387
	c0,4.096-3.31,7.406-7.406,7.406l0,0c-15.413,0-27.904,12.491-27.904,27.904V475.26c0,15.413,12.5,27.913,27.913,27.913h226.666
	c15.413,0,27.904-12.491,27.904-27.904V248.594C291.31,233.181,278.819,220.69,263.406,220.69z"/>
<rect x="17.655" y="79.45" style="fill:#EBBA16;" width="264.83" height="88.28"/>
<g>
	<path style="fill:#FBCE9D;" d="M114.759,432.552H8.828V291.31h105.931c9.754,0,17.655,7.901,17.655,17.655v105.931
		C132.414,424.651,124.513,432.552,114.759,432.552z"/>
	<path style="fill:#FBCE9D;" d="M291.31,432.552h-52.965c-9.754,0-17.655-7.901-17.655-17.655V308.966
		c0-9.754,7.901-17.655,17.655-17.655h52.965V432.552z"/>
</g>
<g>
	<path style="fill:#7383BF;" d="M423.724,141.241c-19.474,0-35.31-15.837-35.31-35.31s15.837-35.31,35.31-35.31
		c19.474,0,35.31,15.837,35.31,35.31S443.198,141.241,423.724,141.241z"/>
	<path style="fill:#7383BF;" d="M423.724,238.345c-19.474,0-35.31-15.837-35.31-35.31s15.837-35.31,35.31-35.31
		c19.474,0,35.31,15.837,35.31,35.31S443.198,238.345,423.724,238.345z"/>
	<path style="fill:#7383BF;" d="M423.724,335.448c-19.474,0-35.31-15.837-35.31-35.31s15.837-35.31,35.31-35.31
		c19.474,0,35.31,15.837,35.31,35.31S443.198,335.448,423.724,335.448z"/>
	<path style="fill:#7383BF;" d="M423.724,432.552c-19.474,0-35.31-15.837-35.31-35.31c0-19.474,15.837-35.31,35.31-35.31
		c19.474,0,35.31,15.837,35.31,35.31S443.198,432.552,423.724,432.552z"/>
</g>
<g>
	<path style="fill:#4D007E;" d="M263.398,512H36.74C16.481,512,0,495.519,0,475.26V248.602c0-19.783,15.713-35.955,35.31-36.714
		v-44.164c0-4.873,3.955-8.828,8.828-8.828H256c4.873,0,8.828,3.955,8.828,8.828v44.164c19.597,0.75,35.31,16.931,35.31,36.714
		v226.666C300.138,495.519,283.657,512,263.398,512z M52.966,176.552v36.74c0,8.942-7.283,16.225-16.225,16.225
		c-10.522,0-19.085,8.563-19.085,19.085v226.666c0,10.514,8.563,19.076,19.085,19.076h226.666c10.514,0,19.076-8.554,19.076-19.076
		V248.602c0-10.523-8.563-19.085-19.085-19.085c-8.942,0-16.225-7.283-16.225-16.225v-36.74L52.966,176.552L52.966,176.552z"/>
	<path style="fill:#4D007E;" d="M282.483,176.552H17.655c-4.873,0-8.828-3.955-8.828-8.828V79.448c0-4.873,3.955-8.828,8.828-8.828
		h264.828c4.873,0,8.828,3.955,8.828,8.828v88.276C291.31,172.597,287.356,176.552,282.483,176.552z M26.483,158.897h247.172V88.276
		H26.483V158.897z"/>
	<path style="fill:#4D007E;" d="M114.759,441.379H8.828c-4.873,0-8.828-3.955-8.828-8.828V291.31c0-4.873,3.955-8.828,8.828-8.828
		h105.931c14.601,0,26.483,11.882,26.483,26.483v105.931C141.241,429.497,129.359,441.379,114.759,441.379z M17.655,423.724h97.103
		c4.864,0,8.828-3.964,8.828-8.828v-105.93c0-4.864-3.964-8.828-8.828-8.828H17.655V423.724z"/>
	<path style="fill:#4D007E;" d="M291.31,441.379h-52.965c-14.601,0-26.483-11.882-26.483-26.483v-105.93
		c0-14.601,11.882-26.483,26.483-26.483h52.965c4.873,0,8.828,3.955,8.828,8.828v141.241
		C300.138,437.425,296.183,441.379,291.31,441.379z M238.345,300.138c-4.864,0-8.828,3.964-8.828,8.828v105.931
		c0,4.864,3.964,8.828,8.828,8.828h44.138V300.138H238.345z"/>
	<path style="fill:#4D007E;" d="M79.448,335.448H8.828c-4.873,0-8.828-3.955-8.828-8.828c0-4.873,3.955-8.828,8.828-8.828h70.621
		c4.873,0,8.828,3.955,8.828,8.828C88.276,331.493,84.321,335.448,79.448,335.448z"/>
	<path style="fill:#4D007E;" d="M61.793,370.759H8.828c-4.873,0-8.828-3.955-8.828-8.828s3.955-8.828,8.828-8.828h52.966
		c4.873,0,8.828,3.955,8.828,8.828S66.666,370.759,61.793,370.759z"/>
	<path style="fill:#4D007E;" d="M44.138,406.069H8.828c-4.873,0-8.828-3.955-8.828-8.828c0-4.873,3.955-8.828,8.828-8.828h35.31
		c4.873,0,8.828,3.955,8.828,8.828S49.011,406.069,44.138,406.069z"/>
	<path style="fill:#4D007E;" d="M473.768,512h-210.37c-4.873,0-8.828-3.955-8.828-8.828c0-4.873,3.955-8.828,8.828-8.828
		c10.522,0,19.085-8.554,19.085-19.076V248.602c0-10.372-8.43-18.935-18.794-19.076c-9.26-0.141-16.516-7.265-16.516-16.234v-45.568
		c0-4.873,3.955-8.828,8.828-8.828h17.655v-70.62h-70.621c-4.873,0-8.828-3.955-8.828-8.828V38.232
		C194.207,17.152,211.359,0,232.439,0h241.329C494.848,0,512,17.152,512,38.232v435.535C512,494.848,494.848,512,473.768,512z
		 M294.788,494.345h178.979c11.343,0,20.577-9.234,20.577-20.577V38.232c0-11.343-9.234-20.577-20.577-20.577H232.439
		c-11.343,0-20.577,9.234-20.577,20.577V70.62h70.621c4.873,0,8.828,3.955,8.828,8.828v88.276c0,4.873-3.955,8.828-8.828,8.828
		h-17.655v35.337c19.553,0.75,35.31,17.037,35.31,36.705V475.26C300.138,482.251,298.178,488.783,294.788,494.345z"/>
	<path style="fill:#4D007E;" d="M61.793,114.759c-4.873,0-8.828-3.955-8.828-8.828V79.448c0-4.873,3.955-8.828,8.828-8.828
		s8.828,3.955,8.828,8.828v26.483C70.621,110.804,66.666,114.759,61.793,114.759z"/>
	<path style="fill:#4D007E;" d="M105.931,114.759c-4.873,0-8.828-3.955-8.828-8.828V79.448c0-4.873,3.955-8.828,8.828-8.828
		s8.828,3.955,8.828,8.828v26.483C114.759,110.804,110.804,114.759,105.931,114.759z"/>
	<path style="fill:#4D007E;" d="M150.069,114.759c-4.873,0-8.828-3.955-8.828-8.828V79.448c0-4.873,3.955-8.828,8.828-8.828
		s8.828,3.955,8.828,8.828v26.483C158.897,110.804,154.942,114.759,150.069,114.759z"/>
	<path style="fill:#4D007E;" d="M194.207,114.759c-4.873,0-8.828-3.955-8.828-8.828V79.448c0-4.873,3.955-8.828,8.828-8.828
		s8.828,3.955,8.828,8.828v26.483C203.034,110.804,199.08,114.759,194.207,114.759z"/>
	<path style="fill:#4D007E;" d="M238.345,114.759c-4.873,0-8.828-3.955-8.828-8.828V79.448c0-4.873,3.955-8.828,8.828-8.828
		s8.828,3.955,8.828,8.828v26.483C247.172,110.804,243.218,114.759,238.345,114.759z"/>
	<path style="fill:#4D007E;" d="M344.276,476.69c-4.873,0-8.828-3.955-8.828-8.828V44.138c0-4.873,3.955-8.828,8.828-8.828
		c4.873,0,8.828,3.955,8.828,8.828v423.724C353.103,472.735,349.149,476.69,344.276,476.69z"/>
	<path style="fill:#4D007E;" d="M423.724,141.241c-19.474,0-35.31-15.837-35.31-35.31s15.837-35.31,35.31-35.31
		c19.474,0,35.31,15.837,35.31,35.31S443.198,141.241,423.724,141.241z M423.724,88.276c-9.737,0-17.655,7.918-17.655,17.655
		s7.918,17.655,17.655,17.655s17.655-7.918,17.655-17.655S433.461,88.276,423.724,88.276z"/>
	<path style="fill:#4D007E;" d="M423.724,238.345c-19.474,0-35.31-15.837-35.31-35.31s15.837-35.31,35.31-35.31
		c19.474,0,35.31,15.837,35.31,35.31S443.198,238.345,423.724,238.345z M423.724,185.379c-9.737,0-17.655,7.918-17.655,17.655
		s7.918,17.655,17.655,17.655s17.655-7.918,17.655-17.655S433.461,185.379,423.724,185.379z"/>
	<path style="fill:#4D007E;" d="M423.724,335.448c-19.474,0-35.31-15.837-35.31-35.31s15.837-35.31,35.31-35.31
		c19.474,0,35.31,15.837,35.31,35.31S443.198,335.448,423.724,335.448z M423.724,282.483c-9.737,0-17.655,7.918-17.655,17.655
		s7.918,17.655,17.655,17.655s17.655-7.918,17.655-17.655S433.461,282.483,423.724,282.483z"/>
	<path style="fill:#4D007E;" d="M423.724,432.552c-19.474,0-35.31-15.837-35.31-35.31c0-19.474,15.837-35.31,35.31-35.31
		c19.474,0,35.31,15.837,35.31,35.31S443.198,432.552,423.724,432.552z M423.724,379.586c-9.737,0-17.655,7.918-17.655,17.655
		s7.918,17.655,17.655,17.655s17.655-7.918,17.655-17.655C441.379,387.505,433.461,379.586,423.724,379.586z"/>
</g>
<g>
</g>
<g>
</g>
<g>
</g>
<g>
</g>
<g>
</g>
<g>
</g>
<g>
</g>
<g>
</g>
<g>
</g>
<g>
</g>
<g>
</g>
<g>
</g>
<g>
</g>
<g>
</g>
<g>
</g>
</svg>
