<?xml version="1.0" encoding="iso-8859-1"?>
<!-- Generator: Adobe Illustrator 21.0.0, SVG Export Plug-In . SVG Version: 6.00 Build 0)  -->
<svg xmlns="http://www.w3.org/2000/svg" xmlns:xlink="http://www.w3.org/1999/xlink" version="1.1" id="Capa_1" x="0px" y="0px" viewBox="0 0 514.772 514.772" style="enable-background:new 0 0 514.772 514.772;" xml:space="preserve" width="512" height="512">
<g>
	<g>
		<g>
			<polygon style="fill:#0075FF;" points="35.422,506.928 35.539,445.302 102.925,369.916 199.649,466.641 159.017,507.273    "/>
		</g>
	</g>
	<g>
		<g>
			<ellipse style="fill:#B75423;" cx="244.819" cy="44.747" rx="27.457" ry="37.247"/>
		</g>
	</g>
	<g>
		<g>
			<ellipse style="fill:#B75423;" cx="173.197" cy="108.164" rx="20.239" ry="27.457"/>
		</g>
	</g>
	<g>
		<g>
			<ellipse style="fill:#B75423;" cx="392.755" cy="108.164" rx="20.239" ry="27.457"/>
		</g>
	</g>
	<g>
		<g>
			<ellipse style="fill:#B75423;" cx="332.591" cy="44.747" rx="27.457" ry="37.247"/>
		</g>
	</g>
	<g>
		<g>
			<path style="fill:#D47A3D;" d="M250.57,239.097c12.787,0.388,24.568-3.836,33.836-11.115     c9.268,7.279,21.049,11.503,33.836,11.115c27.655-0.839,50.067-23.522,50.588-51.185c0.162-8.575-1.744-16.69-5.253-23.88     c-5.168-10.591-17.424-25.547-35.975-44.845c-23.736-24.692-63.245-24.886-87.187-0.393     c-21.628,22.125-31.749,36.166-36.788,48.876c-2.391,6.03-3.69,12.612-3.656,19.501     C200.113,215.122,222.631,238.249,250.57,239.097z"/>
		</g>
	</g>
	<g>
		<g>
			<path style="fill:#F0BCA6;" d="M190.461,283.986c-17.534,9.503-29.441,28.067-29.441,49.412c0,5.775,0.874,11.344,2.493,16.587     l17.937,17.937l0,0l46.327,46.327l28.885-28.529h117.716l95.398-95.397c12.792-12.792,12.792-33.533,0-46.326     c-12.791-12.791-33.533-12.794-46.326,0l-46.489,46.488"/>
		</g>
	</g>
	<g>
		<g>
			<path style="fill:#F0BCA6;" d="M373.953,293.492l-26.713,26.712h-75.465c-5.937-24.65-28.118-42.971-54.591-42.971     c-9.674,0-18.777,2.446-26.724,6.753"/>
		</g>
	</g>
	<g>
		<g>
			<path style="fill:#F0BCA6;" d="M344.203,342.628H221.888c-18.092,0-32.758-14.666-32.758-32.758     c0-18.092,14.666-32.758,32.758-32.758h122.315c18.092,0,32.758,14.666,32.758,32.758     C376.96,327.962,362.294,342.628,344.203,342.628z"/>
		</g>
	</g>
	<g>
		<g>
			
				<rect x="102.304" y="370.769" transform="matrix(0.7071 0.7071 -0.7071 0.7071 332.0382 -3.8761)" style="fill:#ECEDEF;" width="136.789" height="56.197"/>
		</g>
	</g>
	<g>
		<g>
			<polygon style="fill:#2052E0;" points="102.925,369.916 92.069,382.061 176.649,466.641 136.081,507.209 159.017,507.273      199.649,466.641    "/>
		</g>
	</g>
	<g>
		<g>
			<path style="fill:#B75423;" d="M363.578,164.032c-5.168-10.591-17.424-25.547-35.975-44.845     c-14.833-15.431-35.826-21.294-55.331-17.544c11.912,2.276,23.271,8.12,32.331,17.544c18.551,19.298,30.806,34.255,35.975,44.845     c3.509,7.189,5.415,15.304,5.253,23.88c-0.458,24.281-17.781,44.719-40.71,49.924c4.205,0.948,8.598,1.399,13.122,1.261     c27.655-0.839,50.067-23.522,50.588-51.185C368.993,179.336,367.087,171.221,363.578,164.032z"/>
		</g>
	</g>
	<g>
		<g>
			<path style="fill:#EDA69A;" d="M469.775,243.997c-9.372-9.372-23.009-11.869-34.663-7.508c4.253,1.591,8.244,4.088,11.663,7.508     c12.792,12.793,12.792,33.534,0,46.326l-95.398,95.397h23l95.398-95.397C482.568,277.531,482.568,256.79,469.775,243.997z"/>
		</g>
	</g>
	<g>
		<g>
			<polygon style="fill:#EDA69A;" points="216.348,402.821 227.776,414.249 256.662,385.72 233.662,385.72    "/>
		</g>
	</g>
	<g>
		<g>
			<polygon style="fill:#D0CFD1;" points="142.205,330.636 130.705,342.136 215.929,427.361 187.691,455.599 199.191,467.099      238.929,427.361    "/>
		</g>
	</g>
	<g>
		<path d="M196.657,164.906c-2.814,7.1-4.222,14.604-4.184,22.303c0.078,15.473,6.115,30.148,17.001,41.323    c10.89,11.178,25.404,17.593,40.868,18.062c12.07,0.359,23.971-2.952,34.064-9.421c9.59,6.146,20.809,9.449,32.26,9.449    c0.6,0,1.202-0.009,1.804-0.027c15.308-0.464,29.718-6.771,40.576-17.758c10.857-10.986,16.995-25.469,17.283-40.783    c0.181-9.577-1.842-18.766-6.011-27.31c-3.816-7.82-10.98-17.659-21.901-30.077c-2.736-3.111-7.476-3.415-10.585-0.68    c-3.11,2.735-3.415,7.475-0.68,10.585c9.886,11.242,16.508,20.242,19.685,26.75c3.118,6.389,4.63,13.269,4.495,20.449    c-0.45,23.854-19.477,43.106-43.317,43.83c-10.456,0.324-20.758-3.063-28.976-9.517c-2.72-2.136-6.546-2.136-9.266,0    c-8.218,6.455-18.518,9.833-28.976,9.517c-23.771-0.721-43.206-20.669-43.325-44.466c-0.029-5.772,1.024-11.392,3.128-16.701    c4.865-12.273,15.386-26.148,35.179-46.396c18.594-19.023,48.651-21.347,69.918-5.405c3.314,2.484,8.016,1.812,10.5-1.502    c2.484-3.314,1.812-8.015-1.502-10.5c-27.266-20.44-65.804-17.465-89.642,6.921C213.5,135.6,202.376,150.479,196.657,164.906z"/>
		<path d="M244.819,89.495c19.275,0,34.957-20.074,34.957-44.748S264.094,0,244.819,0s-34.957,20.073-34.957,44.747    S225.544,89.495,244.819,89.495z M244.819,15c10.817,0,19.957,13.623,19.957,29.747c0,16.125-9.139,29.748-19.957,29.748    s-19.957-13.623-19.957-29.748C224.863,28.623,234.002,15,244.819,15z"/>
		<path d="M173.197,143.121c15.555,0,27.74-15.355,27.74-34.957s-12.185-34.957-27.74-34.957c-15.555,0-27.739,15.355-27.739,34.957    S157.642,143.121,173.197,143.121z M173.197,88.208c6.906,0,12.74,9.139,12.74,19.957s-5.834,19.957-12.74,19.957    c-6.905,0-12.739-9.139-12.739-19.957S166.291,88.208,173.197,88.208z"/>
		<path d="M392.755,143.121c15.555,0,27.74-15.355,27.74-34.957s-12.185-34.957-27.74-34.957c-15.555,0-27.739,15.355-27.739,34.957    S377.2,143.121,392.755,143.121z M392.755,88.208c6.906,0,12.74,9.139,12.74,19.957s-5.834,19.957-12.74,19.957    c-6.905,0-12.739-9.139-12.739-19.957S385.849,88.208,392.755,88.208z"/>
		<path d="M332.592,89.495c19.275,0,34.957-20.074,34.957-44.748S351.867,0,332.592,0s-34.957,20.073-34.957,44.747    S313.317,89.495,332.592,89.495z M332.592,15c10.817,0,19.957,13.623,19.957,29.747c0,16.125-9.139,29.748-19.957,29.748    s-19.957-13.623-19.957-29.748C312.635,28.623,321.774,15,332.592,15z"/>
		<path d="M475.078,238.693c-7.603-7.603-17.712-11.791-28.465-11.791c0,0,0,0-0.001,0c-10.753,0-20.862,4.188-28.466,11.791    l-44.141,44.14c-7.37-8.116-18.001-13.221-29.802-13.221h-29.796c-4.142,0-7.5,3.358-7.5,7.5s3.358,7.5,7.5,7.5h29.796    c13.927,0,25.258,11.331,25.258,25.258s-11.331,25.258-25.258,25.258h-63.227c-4.142,0-7.5,3.358-7.5,7.5s3.358,7.5,7.5,7.5    h63.227c22.198,0,40.258-18.06,40.258-40.258c0-4.864-0.868-9.529-2.455-13.849c0.086-0.078,0.175-0.151,0.259-0.234    l46.489-46.488c9.848-9.848,25.872-9.848,35.719,0c9.848,9.849,9.848,25.872,0,35.72l-93.201,93.2h-50.465    c-4.142,0-7.5,3.358-7.5,7.5s3.358,7.5,7.5,7.5h53.572c1.989,0,3.897-0.79,5.303-2.197l95.397-95.397    C490.775,279.931,490.775,254.391,475.078,238.693z"/>
		<path d="M290.806,378.22h-34.144c-1.973,0-3.867,0.777-5.27,2.164l-23.583,23.292l-57.629-57.628    c-1.103-4.11-1.661-8.356-1.661-12.649c0-26.834,21.831-48.665,48.666-48.665c0.444,0,0.877-0.046,1.3-0.12h65.922    c4.142,0,7.5-3.358,7.5-7.5s-3.358-7.5-7.5-7.5h-73.155c-1.214,0-2.356,0.295-3.37,0.807    c-30.065,4.422-53.346,29.933-54.312,60.976l-6.062-6.062c-2.929-2.929-7.678-2.929-10.606,0l-39.737,39.737    c-0.256,0.255-0.481,0.529-0.692,0.81l-66.525,74.424c-1.226,1.371-1.905,3.145-1.908,4.984l-0.117,61.626    c-0.008,4.14,3.339,7.502,7.479,7.514l123.596,0.344c0.007,0,0.014,0,0.021,0c1.989,0,3.896-0.79,5.303-2.197l40.174-40.174    l0.458-0.458l39.28-39.28c1.407-1.406,2.197-3.314,2.197-5.303s-0.79-3.897-2.197-5.303l-6.802-6.802l22.311-22.036h31.064    c4.142,0,7.5-3.358,7.5-7.5S294.948,378.22,290.806,378.22z M155.919,499.764l-112.983-0.314l0.098-51.277l59.765-66.86    l85.787,85.787L155.919,499.764z M199.649,456.034l-86.118-86.118l28.673-28.673l86.118,86.118L199.649,456.034z"/>
	</g>
</g>















</svg>
